<svg xmlns="http://www.w3.org/2000/svg" viewBox="0 0 400 250">
  <defs>
    <linearGradient id="bg6" x1="0%" y1="0%" x2="100%" y2="100%">
      <stop offset="0%" style="stop-color:#E8F8F8"/>
      <stop offset="100%" style="stop-color:#fff"/>
    </linearGradient>
  </defs>
  
  <rect width="400" height="250" fill="url(#bg6)"/>
  
  <!-- Syringe -->
  <g transform="translate(100, 50) rotate(45)">
    <rect x="0" y="40" width="120" height="30" rx="5" fill="#00B4B4" opacity="0.7"/>
    <rect x="10" y="45" width="15" height="20" fill="#D4F5F5"/>
    <rect x="30" y="45" width="15" height="20" fill="#D4F5F5"/>
    <rect x="50" y="45" width="15" height="20" fill="#D4F5F5"/>
    <rect x="115" y="50" width="40" height="10" fill="#636E72" opacity="0.6"/>
    <polygon points="155,55 175,55 165,35" fill="#636E72" opacity="0.6"/>
    <rect x="-30" y="45" width="35" height="20" rx="5" fill="#E85A4F" opacity="0.7"/>
  </g>
  
  <!-- Shield with cross -->
  <g transform="translate(260, 80)">
    <path d="M 50 0 L 100 20 L 100 70 Q 100 120 50 140 Q 0 120 0 70 L 0 20 Z" fill="#00B4B4" opacity="0.2"/>
    <rect x="40" y="35" width="20" height="60" rx="3" fill="#00B4B4" opacity="0.5"/>
    <rect x="25" y="50" width="50" height="20" rx="3" fill="#00B4B4" opacity="0.5"/>
  </g>
  
  <!-- Pills decoration -->
  <g opacity="0.3">
    <rect x="50" y="170" width="40" height="18" rx="9" fill="#E85A4F"/>
    <rect x="50" y="170" width="20" height="18" rx="9" fill="#00B4B4"/>
    
    <rect x="320" y="180" width="35" height="15" rx="7" fill="#00B4B4" transform="rotate(-20, 337, 187)"/>
  </g>
  
  <text x="200" y="230" text-anchor="middle" font-family="Inter, sans-serif" font-size="12" fill="#636E72" opacity="0.6">Vacunación y Prevención</text>
</svg>