<svg xmlns="http://www.w3.org/2000/svg" viewBox="0 0 400 250">
  <defs>
    <linearGradient id="bg2" x1="0%" y1="0%" x2="100%" y2="100%">
      <stop offset="0%" style="stop-color:#FFF5F4"/>
      <stop offset="100%" style="stop-color:#fff"/>
    </linearGradient>
    <linearGradient id="coral2" x1="0%" y1="0%" x2="100%" y2="100%">
      <stop offset="0%" style="stop-color:#E85A4F"/>
      <stop offset="100%" style="stop-color:#FF7B6B"/>
    </linearGradient>
  </defs>
  
  <rect width="400" height="250" fill="url(#bg2)"/>
  
  <!-- Microscope icon -->
  <g transform="translate(140, 30)">
    <!-- Base -->
    <rect x="20" y="170" width="80" height="15" rx="5" fill="#00B4B4" opacity="0.8"/>
    <rect x="45" y="140" width="30" height="35" fill="#00B4B4" opacity="0.7"/>
    
    <!-- Arm -->
    <rect x="50" y="60" width="20" height="90" fill="#009999"/>
    
    <!-- Eyepiece -->
    <rect x="40" y="30" width="40" height="40" rx="8" fill="url(#coral2)"/>
    <circle cx="60" cy="50" r="12" fill="#2D3436" opacity="0.3"/>
    
    <!-- Objective -->
    <rect x="45" y="130" width="30" height="20" rx="5" fill="#00B4B4"/>
    
    <!-- Stage -->
    <rect x="30" y="145" width="60" height="8" rx="2" fill="#009999"/>
  </g>
  
  <!-- DNA helix decoration -->
  <g stroke="#00B4B4" stroke-width="2" fill="none" opacity="0.2" transform="translate(300, 50)">
    <path d="M 0 0 Q 20 20 0 40 Q -20 60 0 80 Q 20 100 0 120"/>
    <path d="M 20 0 Q 0 20 20 40 Q 40 60 20 80 Q 0 100 20 120"/>
    <line x1="0" y1="20" x2="20" y2="20"/>
    <line x1="0" y1="60" x2="20" y2="60"/>
    <line x1="0" y1="100" x2="20" y2="100"/>
  </g>
  
  <text x="200" y="230" text-anchor="middle" font-family="Inter, sans-serif" font-size="12" fill="#636E72" opacity="0.6">Especialidades Médicas</text>
</svg>